<svg width="77" height="40" viewBox="0 0 77 40" fill="none" xmlns="http://www.w3.org/2000/svg">
<g id="Group 4 Copy">
<path id="Fill 2" fill-rule="evenodd" clip-rule="evenodd" d="M71.7965 19.6182C71.7965 18.7237 71.6399 17.8897 71.3267 17.1161C71.0135 16.3425 70.586 15.6656 70.044 15.0854C69.5019 14.5052 68.8695 14.0519 68.1468 13.7255C67.4241 13.3992 66.6532 13.236 65.8341 13.236C65.0151 13.236 64.2442 13.3992 63.5215 13.7255C62.7988 14.0519 62.1664 14.5052 61.6244 15.0854C61.0823 15.6656 60.6547 16.3425 60.3415 17.1161C60.0284 17.8897 59.8718 18.7237 59.8718 19.6182C59.8718 20.5127 60.0284 21.3468 60.3415 22.1203C60.6547 22.894 61.0823 23.5709 61.6244 24.1511C62.1664 24.7313 62.7988 25.1846 63.5215 25.5109C64.2442 25.8373 65.0151 26.0005 65.8341 26.0005C66.6532 26.0005 67.4241 25.8373 68.1468 25.5109C68.8695 25.1846 69.5019 24.7313 70.044 24.1511C70.586 23.5709 71.0135 22.894 71.3267 22.1203C71.6399 21.3468 71.7965 20.5127 71.7965 19.6182V19.6182ZM77 19.6182C77 21.1896 76.7109 22.6462 76.1327 23.9879C75.5546 25.3296 74.7596 26.4901 73.7478 27.4692C72.736 28.4482 71.5496 29.2218 70.1885 29.79C68.8273 30.3581 67.3759 30.6422 65.8341 30.6422C64.2923 30.6422 62.8469 30.3581 61.4979 29.79C60.1488 29.2218 58.9684 28.4423 57.9566 27.451C56.9448 26.4598 56.1498 25.2934 55.5717 23.9517C54.9935 22.6099 54.7044 21.1654 54.7044 19.6182C54.7044 18.0952 54.9996 16.6628 55.5897 15.3211C56.1799 13.9793 56.9809 12.8068 57.9927 11.8036C59.0045 10.8003 60.185 10.0146 61.534 9.44647C62.883 8.87837 64.3164 8.5943 65.8341 8.5943C67.3759 8.5943 68.8273 8.87837 70.1885 9.44647C71.5496 10.0146 72.736 10.7882 73.7478 11.7673C74.7596 12.7464 75.5546 13.9129 76.1327 15.2667C76.7109 16.6205 77 18.071 77 19.6182V19.6182ZM52.8976 29.9894C52.4881 30.1828 52.0243 30.34 51.5065 30.4608C50.9885 30.5817 50.4525 30.6422 49.8984 30.6422C49.1275 30.6422 48.3868 30.5394 47.676 30.3339C46.9654 30.1285 46.3451 29.796 45.8151 29.3367C45.2851 28.8774 44.8635 28.279 44.5503 27.5417C44.2372 26.8043 44.0806 25.9159 44.0806 24.8764V0H49.3925V23.9698C49.3925 24.8401 49.5672 25.4384 49.9164 25.7648C50.2658 26.0912 50.6813 26.2544 51.1631 26.2544C51.7654 26.2544 52.3436 26.073 52.8976 25.7104V29.9895V29.9894ZM41.7318 9.10199L32.3365 34.0146C31.638 35.8761 30.7225 37.2178 29.5902 38.0398C28.458 38.8618 27.109 39.2727 25.5431 39.2727C25.3022 39.2727 25.0372 39.2546 24.7481 39.2184C24.459 39.1821 24.182 39.1277 23.917 39.0552L22.1825 34.196C22.592 34.3894 23.0136 34.5404 23.4472 34.6492C23.8809 34.758 24.2904 34.8124 24.6758 34.8124C25.4949 34.8124 26.2417 34.6251 26.9162 34.2503C27.5907 33.8756 28.1087 33.1806 28.4701 32.1652L29.1928 30.0619L21.1346 9.10199H26.8079L31.6138 22.5918L36.1308 9.10199H41.7318ZM19.8698 5.94712H6.2829V12.692H19.6892V17.2611H6.2829V30.0982H0.790314V1.12412H19.8698V5.94712Z" fill="white"/>
</g>
</svg>
